<?xml version="1.0" encoding="UTF-8"?>
<svg xmlns="http://www.w3.org/2000/svg" xmlns:xlink="http://www.w3.org/1999/xlink" width="13pt" height="14pt" viewBox="0 0 13 14" version="1.1">
<g id="surface1">
<path style=" stroke:none;fill-rule:nonzero;fill:rgb(0%,0%,0%);fill-opacity:1;" d="M 1.855469 10.5 L 5.570312 10.5 L 5.570312 11.375 L 1.855469 11.375 Z M 6.5 5.25 L 1.855469 5.25 L 1.855469 6.125 L 6.5 6.125 Z M 8.355469 7.875 L 8.355469 6.125 L 5.570312 8.75 L 8.355469 11.375 L 8.355469 9.625 L 13 9.625 L 13 7.875 Z M 4.179688 7 L 1.855469 7 L 1.855469 7.875 L 4.179688 7.875 Z M 1.855469 9.625 L 4.179688 9.625 L 4.179688 8.75 L 1.855469 8.75 Z M 10.214844 10.5 L 11.144531 10.5 L 11.144531 12.25 C 11.128906 12.496094 11.042969 12.703125 10.867188 12.867188 C 10.691406 13.03125 10.476562 13.109375 10.214844 13.125 L 0.929688 13.125 C 0.421875 13.125 0 12.726562 0 12.25 L 0 2.625 C 0 2.148438 0.421875 1.75 0.929688 1.75 L 3.714844 1.75 C 3.714844 0.78125 4.542969 0 5.570312 0 C 6.601562 0 7.429688 0.78125 7.429688 1.75 L 10.214844 1.75 C 10.722656 1.75 11.144531 2.148438 11.144531 2.625 L 11.144531 7 L 10.214844 7 L 10.214844 4.375 L 0.929688 4.375 L 0.929688 12.25 L 10.214844 12.25 Z M 1.855469 3.5 L 9.285156 3.5 C 9.285156 3.023438 8.863281 2.625 8.355469 2.625 L 7.429688 2.625 C 6.921875 2.625 6.5 2.226562 6.5 1.75 C 6.5 1.273438 6.078125 0.875 5.570312 0.875 C 5.0625 0.875 4.644531 1.273438 4.644531 1.75 C 4.644531 2.226562 4.222656 2.625 3.714844 2.625 L 2.785156 2.625 C 2.277344 2.625 1.855469 3.023438 1.855469 3.5 Z M 1.855469 3.5 "/>
</g>
</svg>
