<?xml version="1.0" encoding="utf-8"?>
<!-- Generator: Adobe Illustrator 23.0.2, SVG Export Plug-In . SVG Version: 6.00 Build 0)  -->
<svg version="1.1" id="Layer_1" xmlns="http://www.w3.org/2000/svg" xmlns:xlink="http://www.w3.org/1999/xlink" x="0px" y="0px"
	 viewBox="0 0 39.9 40.4" style="enable-background:new 0 0 39.9 40.4;" xml:space="preserve">
<style type="text/css">
	.st0{fill:#9DCBF4;}
	.st1{fill:#389AD6;}
	.st2{fill:none;stroke:#2A5081;stroke-width:2;stroke-linecap:round;stroke-linejoin:round;}
	.st3{fill:#2A5081;}
</style>
<g id="Layer_5">
	<path class="st0" d="M15.4,1.4c0,0,5.9,2.6,1.8,8.1c0,0-5.1,1.8-6.1,3.9s-5,2.1-5,2.1c0.3,1.7,1.2,3.3,2.5,4.5
		c2.2,1.8,6.5,9.8,6.5,9.8s10.2,3,5.1,9.7c0,0-10.5-0.2-10.5-0.4s-9.9-1.6-9.3-15.3S-1.7,2.7,15.4,1.4z"/>
	<path class="st0" d="M17.6,9.4c0.9-0.1,1.7,3.8,1.7,4.3c0.1,1.7-0.3,3.5-1.1,5c-0.9,1.8-3.1,3.5-2.9,5.7c0.3,2,1.6,3.6,3.4,4.5
		c4.6,2.4-2.1,3.2-3.5,1.9S3.4,22.2,12,12.2C12,12.2,15,9.8,17.6,9.4z"/>
	<path class="st1" d="M6.3,15.7c0,0-5.6,1.8-4.8,10.8s19.9,10,25.5,1.7c0,0-2.7,5.1-8.8,2.8S10,29.1,7.4,18.4
		C6.8,17.6,6.4,16.7,6.3,15.7z"/>
	<path class="st2" d="M37,6.7c1.2,1.9,1.8,4.1,1.8,6.3v14.3c0,6.6-5.4,12-12,12H13c-6.6,0-12-5.4-12-12V13C1,6.4,6.4,1,13,1h13.8
		C28.4,1,30,1.3,31.5,2"/>
	<path class="st2" d="M10.6,14.1C13.9,9,20.8,7.6,25.9,11c2.8,1.9,4.7,5,4.9,8.4c0,0.3,0,0.5,0,0.8c0,6.1-5,11.1-11.1,11
		c-4.1,0-7.8-2.3-9.7-5.9"/>
	<path class="st2" d="M10.6,14.1c-2.4,0.2-4.1,0.9-4.4,2.1s0.7,2.5,2.6,3.8c3.1,2,6.4,3.4,10,4.3c3.5,1,7.2,1.4,10.9,1.1
		c2.3-0.2,3.8-0.9,4.1-2s-0.8-2.6-2.8-4"/>
	<circle class="st3" cx="34" cy="3.7" r="1"/>
</g>
</svg>
