<svg version="1.1" viewBox="0 0 153 96" xmlns="http://www.w3.org/2000/svg">
    <g fill="none" fill-rule="evenodd">
        <g transform="translate(-83 -193)" fill="#337ab7">
            <g transform="translate(83 193)">
                <path d="m110.81 42.255c-2.0466-16.641-16.274-29.255-33.089-29.255-11.407 0-21.898 5.7335-28.04 15.314-2.8042-0.47177-4.726-0.73604-6.6004-0.73604-14.384 0-26.086 11.673-26.086 26.027 0 14.354 11.701 26.027 26.086 26.027h73.34v-4h-73.34c-12.178 0-22.086-9.8839-22.086-22.027 0-12.143 9.9083-22.027 22.086-22.027 1.5447 0 3.1858 0.22717 5.517 0.77449 0.26776 0.067691 0.56963 0.10424 0.8766 0.10424 1.3505 0 2.6751-0.71649 3.4774-1.8375 5.4608-8.5563 14.702-13.619 24.769-13.619 14.792 0 27.319 11.106 29.132 25.833 0.21305 1.272 0.82278 2.343 1.7696 2.9485 0.66699 0.5075 1.4383 0.77915 2.2559 0.77915 0.41053 0 0.82183-0.069314 1.2199-0.20078 1.6854-0.51739 3.0142-0.74409 4.3226-0.74409 8.2981 0 15.05 6.7348 15.05 15.008 0 8.2728-6.7514 15.008-15.05 15.008v4c10.505 0 19.05-8.5235 19.05-19.008 0-10.484-8.5445-19.008-19.05-19.008-1.7165 0-3.4133 0.28609-5.4648 0.91104-0.10746-0.10913-0.13141-0.18447-0.14615-0.27165z" fill-rule="nonzero"/>
                <path transform="translate(75.627 49.627) rotate(45) translate(-75.627 -49.627)" d="m73.627 47.627h-11.998c-1.1125 0-2.0017 0.89543-2.0017 2 0 1.1123 0.89621 2 2.0017 2h11.998v11.998c0 1.1125 0.89543 2.0017 2 2.0017 1.1123 0 2-0.89621 2-2.0017v-11.998h11.998c1.1125 0 2.0017-0.89543 2.0017-2 0-1.1123-0.89621-2-2.0017-2h-11.998v-11.998c0-1.1125-0.89543-2.0017-2-2.0017-1.1123 0-2 0.89621-2 2.0017v11.998z"/>
                <path d="m116.89 0.54785l1.8635 3.6974 3.6983 1.8633c0.49197 0.24594 0.68797 0.84821 0.44188 1.3401-0.10008 0.19804-0.25862 0.34809-0.44188 0.44189l-3.6983 1.8633-1.8635 3.6974c-0.24588 0.49187-0.84848 0.68992-1.3405 0.44189-0.19798-0.10007-0.34806-0.25846-0.44188-0.44189l-1.8616-3.6974-3.6984-1.8633c-0.49198-0.24802-0.68787-0.84831-0.44178-1.3402 0.10009-0.19794 0.25862-0.34798 0.44178-0.44179l3.6984-1.8633 1.8616-3.6974c0.24807-0.49187 0.84848-0.68773 1.3405-0.44179 0.19798 0.097978 0.34816 0.25637 0.44188 0.44179zm0.22929 4.8895l-1.1196-2.2218-1.1194 2.2218c-0.093824 0.18344-0.244 0.34183-0.44198 0.44189l-2.2242 1.1192 2.2242 1.1214c0.18347 0.093805 0.3419 0.24385 0.44198 0.44179l1.1194 2.2239 1.1196-2.2239c0.093719-0.18344 0.2439-0.34183 0.44178-0.44179l2.2243-1.1214-2.2243-1.1192c-0.18326-0.093805-0.34169-0.24385-0.44178-0.44189z"/>
                <path d="m146.89 32.548l1.8635 3.6974 3.6983 1.8633c0.49197 0.24594 0.68797 0.84821 0.44188 1.3401-0.10008 0.19804-0.25862 0.34809-0.44188 0.44189l-3.6983 1.8633-1.8635 3.6974c-0.24588 0.49187-0.84848 0.68992-1.3405 0.44189-0.19798-0.10007-0.34806-0.25846-0.44188-0.44189l-1.8616-3.6974-3.6984-1.8633c-0.49198-0.24802-0.68787-0.84831-0.44178-1.3402 0.10009-0.19794 0.25862-0.34798 0.44178-0.44179l3.6984-1.8633 1.8616-3.6974c0.24807-0.49187 0.84848-0.68773 1.3405-0.44179 0.19798 0.097978 0.34816 0.25637 0.44188 0.44179zm0.22929 4.8895l-1.1196-2.2218-1.1194 2.2218c-0.093824 0.18344-0.244 0.34183-0.44198 0.44189l-2.2242 1.1192 2.2242 1.1214c0.18347 0.093804 0.3419 0.24385 0.44198 0.44179l1.1194 2.2239 1.1196-2.2239c0.093719-0.18344 0.2439-0.34183 0.44178-0.44179l2.2243-1.1214-2.2243-1.1192c-0.18326-0.093805-0.34169-0.24385-0.44178-0.44189z"/>
                <polygon points="128 26.6 124.4 26.6 124.4 23 122.6 23 122.6 26.6 119 26.6 119 28.4 122.6 28.4 122.6 32 124.4 32 124.4 28.4 128 28.4"/>
                <path d="m7.8902 18.548l1.8635 3.6974 3.6983 1.8633c0.49197 0.24594 0.68797 0.84821 0.44188 1.3401-0.10009 0.19804-0.25862 0.34809-0.44188 0.44189l-3.6983 1.8633-1.8635 3.6974c-0.24588 0.49187-0.84848 0.68992-1.3405 0.44189-0.19798-0.10007-0.34806-0.25846-0.44188-0.44189l-1.8616-3.6974-3.6984-1.8633c-0.49197-0.24802-0.68787-0.84831-0.44178-1.3402 0.10009-0.19794 0.25862-0.34798 0.44178-0.44179l3.6984-1.8633 1.8616-3.6974c0.24807-0.49187 0.84848-0.68773 1.3405-0.44179 0.19798 0.097978 0.34816 0.25637 0.44188 0.44179zm0.22929 4.8895l-1.1196-2.2218-1.1194 2.2218c-0.093824 0.18344-0.244 0.34183-0.44198 0.44189l-2.2242 1.1192 2.2242 1.1214c0.18347 0.093804 0.3419 0.24385 0.44198 0.44179l1.1194 2.2239 1.1196-2.2239c0.093719-0.18344 0.2439-0.34183 0.44178-0.44179l2.2243-1.1214-2.2243-1.1192c-0.18326-0.093805-0.34169-0.24385-0.44178-0.44189z"/>
                <polygon points="38 12.6 34.4 12.6 34.4 9 32.6 9 32.6 12.6 29 12.6 29 14.4 32.6 14.4 32.6 18 34.4 18 34.4 14.4 38 14.4"/>
                <path transform="translate(77 50) rotate(180) translate(-77 -50)" d="m65.803 80.415c4.5978 9.0432 17.968 15.585 33.745 15.585 19.579 0 35.452-10.075 35.452-22.502 0-8.4358-7.3132-15.787-18.135-19.64 1.5262-3.6614 2.3498-7.562 2.3498-11.609 0-21.124-22.434-38.248-50.107-38.248-27.674 0-50.107 17.124-50.107 38.248 0 20.277 20.67 36.868 46.803 38.167z" opacity=".1"/>
            </g>
        </g>
    </g>
</svg>
