<svg xmlns="http://www.w3.org/2000/svg" viewBox="0 0 16px 16px"><path fill="#F44336" d="M246.824 108.485l-3.162-4.442c-3.033-4.262-7.347-11.565-9.615-16.279L218.451 55.35c-2.665-5.541-9.569-9.881-15.719-9.881H94.896c-6.051 0-13.361 3.983-16.644 9.068l-28.7 44.476c-2.594 4.02-8.722 8.328-13.383 9.408l-25.153 5.829C4.942 115.657 0 121.876 0 128.112v43.845c0 6.47 5.264 11.734 11.734 11.734h18.743c3.976 13.648 16.589 23.652 31.502 23.652 14.914 0 27.527-10.004 31.503-23.652h60.848c3.976 13.648 16.589 23.652 31.503 23.652 14.913 0 27.526-10.004 31.502-23.652h23.742c6.471 0 11.734-5.264 11.734-11.734v-44.734c0-5.79-2.629-14.021-5.987-18.738zM61.979 190.828c-9.001 0-16.299-7.299-16.299-16.3 0-9.002 7.298-16.299 16.299-16.299 9.002 0 16.3 7.297 16.3 16.299 0 9.001-7.298 16.3-16.3 16.3zm93.002-82.394H72.756c-4.287 0-5.967-2.994-3.732-6.653l20.794-34.059c2.234-3.659 7.57-6.653 11.857-6.653h53.307v47.365zm30.852 82.394c-9.002 0-16.3-7.299-16.3-16.3 0-9.002 7.298-16.299 16.3-16.299 9.001 0 16.299 7.297 16.299 16.299 0 9.001-7.298 16.3-16.299 16.3zm23.769-82.394h-35.863V61.068h20.346c4.287 0 8.887 3.333 10.222 7.408l10.664 32.55c1.335 4.074-1.081 7.408-5.369 7.408z"/></svg>